<?xml version="1.0" standalone="no"?>
<!DOCTYPE svg PUBLIC "-//W3C//DTD SVG 20010904//EN"
 "http://www.w3.org/TR/2001/REC-SVG-20010904/DTD/svg10.dtd">
<svg version="1.0" xmlns="http://www.w3.org/2000/svg"
 width="260.000000pt" height="260.000000pt" viewBox="0 0 260.000000 260.000000"
 preserveAspectRatio="xMidYMid meet">
<metadata>
Created by potrace 1.14, written by Peter Selinger 2001-2017
</metadata>
<g transform="translate(0.000000,260.000000) scale(0.100000,-0.100000)"
fill="#000000" stroke="none">
<path d="M494 2580 c-218 -56 -385 -211 -461 -426 l-28 -79 -2 -750 c-2 -819
-2 -818 56 -941 77 -164 191 -272 358 -339 105 -43 154 -45 898 -44 775 1 780
1 904 59 149 70 251 172 321 323 61 130 60 120 57 942 l-2 750 -23 69 c-61
178 -184 317 -356 397 -122 57 -125 57 -921 57 -679 1 -735 -1 -801 -18z"/>
</g>
</svg>
