<svg width="102" height="67" viewBox="0 0 102 67" fill="none" xmlns="http://www.w3.org/2000/svg">
<g clip-path="url(#clip0_64_468)">
<path d="M15.1836 28.5363V33.0641H6.28587V35.0104H13.6603V39.5612H6.28587V41.5076H15.1836V46.0353H0V28.5363H15.1836Z" fill="#131313"/>
<path d="M32.3483 31.3348C33.1541 32.4717 33.6206 33.8576 33.7496 35.4961H27.6564C27.5592 33.8255 26.7463 32.9894 25.2142 32.9894C23.4258 32.9894 22.5298 34.4251 22.5298 37.2983C22.5298 40.1537 23.424 41.5823 25.2142 41.5823C26.0041 41.5823 26.5996 41.4115 27.0025 41.0717C27.4055 40.7141 27.6546 40.1146 27.7518 39.2713H33.7479C33.5871 41.6232 32.6929 43.4254 31.0635 44.6744C29.4519 45.8912 27.4214 46.4997 24.972 46.4997C22.4414 46.4997 20.3385 45.7044 18.6614 44.1139C17.0003 42.5074 16.1715 40.2356 16.1715 37.2983C16.1715 34.3931 17.018 32.1301 18.7092 30.5076C20.418 28.885 22.5051 28.0738 24.9703 28.0738C28.3421 28.0738 30.8002 29.1608 32.3483 31.3348Z" fill="#131313"/>
<path d="M37.0861 44.041C35.4744 42.4025 34.6686 40.1555 34.6686 37.2983C34.6686 34.4429 35.4744 32.1959 37.0861 30.5556C38.7137 28.9011 40.9951 28.0738 43.9286 28.0738C46.8622 28.0738 49.1348 28.9011 50.7464 30.5556C52.374 32.2262 53.1887 34.4749 53.1887 37.2983C53.1887 40.1217 52.374 42.3687 50.7464 44.041C49.1188 45.6795 46.8463 46.4997 43.9286 46.4997C40.9951 46.4979 38.7137 45.6795 37.0861 44.041ZM46.0811 34.1831C45.581 33.3879 44.8635 32.9912 43.9286 32.9912C42.9938 32.9912 42.2693 33.3968 41.7532 34.208C41.269 34.9713 41.0287 36.0014 41.0287 37.3001C41.0287 38.5988 41.2708 39.6289 41.7532 40.3903C42.2693 41.1856 42.9938 41.5823 43.9286 41.5823C44.8635 41.5823 45.581 41.1856 46.0811 40.3903C46.5653 39.6289 46.8056 38.597 46.8056 37.3001C46.8056 35.9836 46.5635 34.9464 46.0811 34.1831Z" fill="#131313"/>
<path d="M26.0147 66.9999H19.7288V54.4646H15.1837V49.4992H30.5846V54.4646H26.0147V66.9999V66.9999Z" fill="#131313"/>
<path d="M47.3852 60.7447C47.82 61.54 48.0373 62.8779 48.0373 64.7601C48.0373 65.7991 48.214 66.5463 48.5692 67H42.1385C41.8645 66.4965 41.7267 65.7012 41.7267 64.6142C41.7267 62.2783 41.0905 61.1094 39.8164 61.1094H38.1004V67H31.8146V49.501H40.905C45.7082 49.501 48.1098 51.3743 48.1098 55.1229C48.1098 57.103 47.1908 58.4497 45.353 59.1631C46.2737 59.4051 46.9505 59.9335 47.3852 60.7447ZM38.1022 56.5586H40.085C41.1965 56.5586 41.7532 56.1369 41.7532 55.2936C41.7532 54.4504 41.1965 54.0287 40.085 54.0287H38.1022V56.5586Z" fill="#131313"/>
<path d="M55.1219 67H48.6912L54.9523 49.501H61.6252L67.8863 67H61.4555L60.731 64.4933H55.8465L55.1219 67ZM58.2658 55.6335L56.9845 60.2341H59.5717L58.2658 55.6335Z" fill="#131313"/>
<path d="M76.784 49.4992C79.5886 49.4992 81.7481 50.2464 83.2625 51.7391C84.7929 53.2477 85.5599 55.4217 85.5599 58.2611C85.5599 61.0685 84.8106 63.2354 83.312 64.7601C81.8294 66.2527 79.7494 66.9999 77.0739 66.9999H68.6373V49.501H76.784V49.4992ZM74.9232 62.0826H75.8174C78.0741 62.0826 79.2016 60.8088 79.2016 58.2611C79.2016 55.6975 78.0723 54.4148 75.8174 54.4148H74.9232V62.0826Z" fill="#131313"/>
<path d="M102 49.4992V54.0269H93.1022V55.9733H100.477V60.5241H93.1022V62.4722H102V66.9999H86.8163V49.501H102V49.4992Z" fill="#131313"/>
<path d="M27.8702 19.4755C27.7642 19.963 27.7713 20.3846 27.7624 20.8009C27.7377 21.9911 27.5999 23.1689 27.462 24.3484C27.4479 24.4623 27.3949 24.5726 27.3595 24.6847C27.303 24.8697 27.2093 24.9017 27.0149 24.8412C26.6632 24.7291 26.3664 24.521 26.05 24.3466C23.9612 23.1902 22.3549 21.5837 21.3829 19.3599C20.5064 17.3531 20.3208 15.2769 20.7626 13.1491C20.9818 12.0924 21.2857 11.0516 21.4942 9.9895C21.7081 8.90782 21.7487 7.82258 21.6179 6.72667C21.3847 4.79282 20.5947 3.07779 19.6263 1.42503C19.4054 1.04964 19.1598 0.693826 18.9142 0.336231C18.8576 0.254394 18.7657 0.149428 18.8452 0.0498C18.9283 -0.0551655 19.0414 0.0284511 19.1333 0.0693699C21.2256 1.01762 23.2349 2.10819 25.1205 3.4336C26.5484 4.437 27.8702 5.56316 28.9818 6.89924C30.9063 9.21382 32.138 11.8237 32.1291 14.93C32.1256 16.1771 32.0072 17.4011 31.6608 18.5896C31.1996 20.1676 30.5122 21.6442 29.4943 22.9483C29.314 23.1796 29.132 23.4091 28.9464 23.6368C28.8828 23.7151 28.8351 23.8449 28.7079 23.8094C28.5789 23.7738 28.5524 23.6386 28.5347 23.5247C28.4569 23.0141 28.3827 22.5017 28.3156 21.9894C28.2184 21.2315 28.1282 20.4718 27.9657 19.7246C27.9515 19.6623 27.9197 19.6036 27.8702 19.4755Z" fill="url(#paint0_linear_64_468)"/>
<path d="M38.7189 20.1267C37.1497 20.7547 35.7748 21.6656 34.5749 22.8878C33.3874 24.0958 32.4914 25.4942 31.7333 27.001C31.6979 26.9904 31.6626 26.9815 31.6272 26.9708C31.6272 26.4744 31.5831 25.9727 31.6361 25.4817C31.7456 24.4783 31.8287 23.4731 32.092 22.4875C32.4384 21.1924 32.9526 19.9826 33.6383 18.8351C34.2409 17.8246 35.0591 16.9955 35.8508 16.154C36.6231 15.3339 37.6427 14.8571 38.696 14.4692C40.6964 13.7309 42.7958 13.3306 44.8051 12.6261C46.1305 12.16 47.3781 11.5587 48.3642 10.5126C48.4261 10.4467 48.4897 10.34 48.5922 10.3774C48.7177 10.4236 48.6823 10.5588 48.6753 10.6567C48.5957 11.7828 48.4826 12.9072 48.2582 14.012C48.0444 15.0599 47.797 16.1006 47.4276 17.1094C46.6147 19.3261 45.4926 21.3578 43.9392 23.1422C42.4088 24.9 40.4738 26.019 38.3037 26.7609C37.109 27.1701 35.8702 27.3302 34.612 27.332C34.0359 27.3337 33.9811 27.259 34.1596 26.6879C34.5502 25.4461 35.2358 24.3716 36.0258 23.3539C36.7839 22.379 37.6021 21.461 38.4821 20.5946C38.597 20.4825 38.6924 20.3509 38.7967 20.2281C38.7684 20.1961 38.7437 20.1623 38.7189 20.1267Z" fill="url(#paint1_linear_64_468)"/>
</g>
<defs>
<linearGradient id="paint0_linear_64_468" x1="23.1291" y1="24.8273" x2="45.2823" y2="9.04143" gradientUnits="userSpaceOnUse">
<stop stop-color="#60E312"/>
<stop offset="1" stop-color="#B5ED31"/>
</linearGradient>
<linearGradient id="paint1_linear_64_468" x1="37.1434" y1="27.3035" x2="52.4682" y2="6.77097" gradientUnits="userSpaceOnUse">
<stop stop-color="#60E312"/>
<stop offset="1" stop-color="#B5ED31"/>
</linearGradient>
<clipPath id="clip0_64_468">
<rect width="102" height="67" fill="white"/>
</clipPath>
</defs>
</svg>
