<svg width="99" height="36" viewBox="0 0 99 36" fill="none" xmlns="http://www.w3.org/2000/svg">
<path d="M20.3468 7.24672C19.3363 6.44252 18.1344 5.85041 16.7499 5.47629C15.3624 5.10217 13.8836 4.91364 12.3106 4.91364H7.87122V12.1633H12.4225C13.6598 12.1633 14.5759 12.5286 15.1769 13.2591C15.7749 13.9897 16.0753 14.7968 16.0753 15.6747C16.0753 16.5555 15.7749 17.3597 15.1769 18.0903C14.5759 18.8208 13.6598 19.1861 12.4225 19.1861H7.87122H0.00296021V35.6532H7.87122V25.8731H9.27638L15.8514 35.6532H23.7197L17.7044 25.0866C19.6162 24.4886 21.095 23.3721 22.1437 21.7431C23.1924 20.114 23.7168 17.8752 23.7168 15.0266C23.6785 13.2267 23.3603 11.6831 22.7623 10.3899C22.1643 9.10258 21.3572 8.05388 20.3468 7.24672Z" fill="white"/>
<path d="M37.0937 4.85767H29.3374V35.6591H37.0937V4.85767Z" fill="white"/>
<path d="M62.5839 7.3027C61.4792 6.46019 60.2036 5.84157 58.7631 5.44683C57.3197 5.05209 55.832 4.85767 54.2943 4.85767H42.7733V35.6591H54.2943C55.8291 35.6591 57.3108 35.4617 58.7337 35.07C60.1565 34.6752 61.4232 34.0684 62.5279 33.2435C63.6326 32.4187 64.5222 31.3612 65.1968 30.0679C65.8714 28.7747 66.2072 27.2488 66.2072 25.4872V15.2004C66.2072 13.4005 65.8773 11.8481 65.2233 10.5343C64.5693 9.22337 63.6885 8.14815 62.5839 7.3027ZM58.3949 24.9805C58.3949 25.9909 58.0856 26.8069 57.467 27.4256C56.8484 28.0442 55.8645 28.3535 54.5153 28.3535H50.5797V12.1103H54.5153C55.8262 12.1103 56.8012 12.4107 57.4375 13.0087C58.0738 13.6097 58.392 14.3962 58.392 15.3683V24.9805H58.3949Z" fill="white"/>
<path d="M93.2999 12.1662V4.85767H71.8838V35.6591H93.2999V28.2975H79.755V23.6873H85.2607L88.9165 16.9443H79.755V12.1662H93.2999Z" fill="white"/>
<path d="M0 11.8834L7.86828 19.192V12.1662L0 4.85767V11.8834Z" fill="#0075FF"/>
<path d="M99 2.47448C99 3.87669 97.8983 4.97843 96.4666 4.97843C95.0497 4.97843 93.9185 3.87669 93.9185 2.47448C93.9185 1.10173 95.0497 0 96.4666 0C97.8983 0 99 1.10173 99 2.47448ZM94.5518 2.47448C94.5518 3.57622 95.3649 4.45113 96.4813 4.45113C97.5683 4.45113 98.3666 3.57622 98.3666 2.49216C98.3666 1.39042 97.5683 0.500792 96.4666 0.500792C95.3649 0.497846 94.5518 1.38748 94.5518 2.47448ZM96.0748 3.77064H95.5004V1.29616C95.7272 1.25197 96.0424 1.21957 96.4519 1.21957C96.9203 1.21957 97.1294 1.29616 97.3121 1.39926C97.4476 1.50531 97.5536 1.69973 97.5536 1.94129C97.5536 2.21231 97.3415 2.42441 97.041 2.51573V2.54519C97.2826 2.63651 97.4181 2.8162 97.4947 3.14908C97.5713 3.52614 97.6155 3.67638 97.6744 3.7677H97.0558C96.9792 3.67638 96.935 3.45249 96.8584 3.1638C96.8142 2.89279 96.661 2.77201 96.3458 2.77201H96.0748V3.77064V3.77064ZM96.0895 2.36844H96.3606C96.6787 2.36844 96.935 2.26238 96.935 2.0061C96.935 1.77927 96.77 1.62904 96.4077 1.62904C96.2574 1.62904 96.1514 1.64377 96.0895 1.6585V2.36844V2.36844Z" fill="white"/>
</svg>
