<svg width="56" height="56" viewBox="0 0 56 56" fill="none" xmlns="http://www.w3.org/2000/svg">
<path d="M47.4424 56H8.55759C3.8312 56 0 52.1689 0 47.4426V8.55739C0 3.83111 3.8312 0 8.55759 0H47.4424C52.1688 0 56 3.83111 56 8.55739V47.4413C56 52.1676 52.1688 56 47.4424 56Z" fill="white"/>
<path d="M22.3445 34.8102C22.291 34.4469 22.2296 34.0848 22.1515 33.7256M22.3445 34.8102L22.0056 33.7574C22.0186 33.666 22.0351 33.5726 22.056 33.4766C22.0745 33.5245 22.0906 33.5627 22.1041 33.595C22.1268 33.6491 22.1426 33.6867 22.1515 33.7256M22.3445 34.8102L21.9482 34.802M22.1515 33.7256L22.0053 33.7588L22.1515 33.7256Z" fill="url(#paint0_linear_64_480)" stroke="#28521D" stroke-width="2"/>
<path d="M41.8151 23.8353C40.9908 24.7063 39.9215 25.2397 38.6595 25.6836C37.7419 26.0053 36.8012 26.2622 35.8201 26.5302C35.7699 26.5439 35.7197 26.5576 35.6694 26.5713C34.6466 26.8509 33.5824 27.1457 32.5362 27.5318C31.4479 27.9326 30.2456 28.4743 29.3086 29.4695L29.3083 29.4698C29.2366 29.546 29.1636 29.6231 29.0897 29.7012C28.3771 30.4545 27.5738 31.3036 26.9657 32.3231C26.2331 33.5491 25.6823 34.8444 25.3118 36.2302L25.3117 36.2304C25.0603 37.1715 24.9593 38.1302 24.8677 38.9995C24.8543 39.1264 24.8412 39.2514 24.8278 39.3741L24.8276 39.3753C24.7835 39.7841 24.7962 40.2496 24.8061 40.6162C24.8097 40.7506 24.813 40.8716 24.813 40.9718V41.7144L25.5239 41.9291C25.5529 41.9378 25.5802 41.9454 25.5965 41.9499L25.5992 41.9506C25.6187 41.956 25.6252 41.9579 25.6299 41.9593L26.4346 42.2023L26.8124 41.4515C26.9999 41.0787 27.1949 40.7155 27.3997 40.3628C27.397 40.3715 27.3942 40.3802 27.3915 40.3889L27.3909 40.3906C27.3458 40.5352 27.2907 40.7219 27.2676 40.9061C27.2462 41.0766 27.223 41.45 27.4716 41.8023C27.7264 42.1634 28.0955 42.2625 28.2741 42.2961C28.4594 42.331 28.6548 42.3334 28.8 42.3329M41.8151 23.8353C41.8175 23.8327 41.8199 23.8302 41.8223 23.8276L42.5497 24.5133L41.8213 23.8288C41.8212 23.8289 41.8209 23.8292 41.8204 23.8297C41.8184 23.8319 41.814 23.8368 41.8151 23.8353ZM41.8151 23.8353C41.8163 23.8337 41.823 23.8259 41.8431 23.8028C41.8672 23.7751 41.9273 23.7065 42.0102 23.6377C42.0944 23.5678 42.2403 23.465 42.4464 23.4092C42.6705 23.3485 42.9046 23.3601 43.1205 23.4388L43.1239 23.4401C43.3292 23.5157 43.5262 23.6534 43.6693 23.8617C43.8039 24.0577 43.8476 24.2538 43.8627 24.3843C43.8772 24.5105 43.8692 24.617 43.865 24.6653C43.863 24.6883 43.8606 24.7109 43.8594 24.7217L43.8591 24.7251C43.8586 24.7293 43.8583 24.732 43.8582 24.7335C43.7775 25.8745 43.6607 27.0467 43.424 28.2121L43.4238 28.2129C43.2065 29.2778 42.9474 30.3756 42.5524 31.4542L42.5523 31.4546C41.7044 33.7666 40.5251 35.9091 38.8792 37.7998L38.8792 37.7999C37.2054 39.7223 35.1042 40.9248 32.8129 41.7081C31.4926 42.1602 30.1412 42.331 28.8 42.3329M28.8 42.3329C28.8003 42.3329 28.8006 42.3329 28.8009 42.3329L28.7978 41.3329L28.7992 42.3329C28.7995 42.3329 28.7998 42.3329 28.8 42.3329ZM43.3515 25.116C43.354 25.1132 43.3535 25.1139 43.3505 25.1172L43.3515 25.116Z" fill="url(#paint1_linear_64_480)" stroke="#28521D" stroke-width="2"/>
<rect x="0.5" y="0.5" width="55" height="55" rx="7.5" stroke="#D5D5D5"/>
<defs>
<linearGradient id="paint0_linear_64_480" x1="17.3148" y1="38.8283" x2="39.4681" y2="23.0425" gradientUnits="userSpaceOnUse">
<stop stop-color="#60E312"/>
<stop offset="1" stop-color="#B5ED31"/>
</linearGradient>
<linearGradient id="paint1_linear_64_480" x1="31.3292" y1="41.3045" x2="46.6539" y2="20.7719" gradientUnits="userSpaceOnUse">
<stop stop-color="#60E312"/>
<stop offset="1" stop-color="#B5ED31"/>
</linearGradient>
</defs>
</svg>
