<svg width="56" height="56" viewBox="0 0 56 56" fill="none" xmlns="http://www.w3.org/2000/svg">
<path d="M47.4424 56H8.55759C3.8312 56 0 52.1689 0 47.4426V8.55739C0 3.83111 3.8312 0 8.55759 0H47.4424C52.1688 0 56 3.83111 56 8.55739V47.4413C56 52.1676 52.1688 56 47.4424 56Z" fill="#08080A"/>
<path d="M36.6538 14.6957C35.6243 13.8763 34.3996 13.273 32.9888 12.8918C31.5751 12.5106 30.0682 12.3185 28.4654 12.3185H23.9419V19.7053H28.5794C29.8401 19.7053 30.7736 20.0775 31.386 20.8219C31.9953 21.5663 32.3015 22.3887 32.3015 23.2832C32.3015 24.1806 31.9953 25.0001 31.386 25.7445C30.7736 26.4888 29.8401 26.861 28.5794 26.861H23.9419H15.9246V43.6398H23.9419V33.6746H25.3737L32.0733 43.6398H40.0907L33.9614 32.8732C35.9094 32.2639 37.4162 31.1263 38.4848 29.4664C39.5534 27.8065 40.0877 25.5253 40.0877 22.6228C40.0487 20.7889 39.7245 19.2161 39.1152 17.8984C38.5058 16.5867 37.6834 15.5181 36.6538 14.6957Z" fill="white"/>
<path d="M15.9216 19.4202L23.9389 26.8671V19.7084L15.9216 12.2615V19.4202Z" fill="#0075FF"/>
<rect x="0.5" y="0.5" width="55" height="55" rx="7.5" stroke="white"/>
</svg>
