<svg width="27" height="28" viewBox="0 0 27 28" fill="none" xmlns="http://www.w3.org/2000/svg">
<path d="M13.5 5.39C16.2 5.39 16.5263 5.39 17.595 5.44833C18.2379 5.46436 18.8733 5.59458 19.4738 5.83333C19.904 6.00933 20.2948 6.27517 20.6219 6.61434C20.9489 6.95352 21.2053 7.35879 21.375 7.805C21.5975 8.42906 21.7155 9.08801 21.7238 9.75333C21.7238 10.8617 21.78 11.1883 21.78 14C21.78 16.8117 21.78 17.1383 21.7238 18.2467C21.7155 18.912 21.5975 19.5709 21.375 20.195C21.2053 20.6412 20.9489 21.0465 20.6219 21.3857C20.2948 21.7248 19.904 21.9907 19.4738 22.1667C18.872 22.3975 18.2366 22.5198 17.595 22.5283C16.5263 22.5283 16.2113 22.5867 13.5 22.5867C10.7888 22.5867 10.4738 22.5867 9.405 22.5283C8.76344 22.5198 8.12803 22.3975 7.52625 22.1667C7.09598 21.9907 6.70518 21.7248 6.37812 21.3857C6.05106 21.0465 5.79471 20.6412 5.625 20.195C5.40245 19.5709 5.2845 18.912 5.27625 18.2467C5.27625 17.1383 5.22 16.8117 5.22 14C5.22 11.1883 5.22 10.8617 5.27625 9.75333C5.2845 9.08801 5.40245 8.42906 5.625 7.805C5.79471 7.35879 6.05106 6.95352 6.37812 6.61434C6.70518 6.27517 7.09598 6.00933 7.52625 5.83333C8.12803 5.60254 8.76344 5.48022 9.405 5.47167C10.4738 5.47167 10.7888 5.41333 13.5 5.41333V5.39ZM13.5 3.5C10.755 3.5 10.4063 3.5 9.32625 3.55833C8.48796 3.57711 7.65877 3.74278 6.87375 4.04833C6.19969 4.31662 5.58722 4.72821 5.07573 5.25665C4.56423 5.78508 4.16501 6.41867 3.90375 7.11667C3.60911 7.93076 3.44936 8.79066 3.43125 9.66C3.375 10.7917 3.375 11.1533 3.375 14C3.375 16.8467 3.375 17.2083 3.43125 18.3283C3.44936 19.1977 3.60911 20.0576 3.90375 20.8717C4.16246 21.5707 4.55935 22.2058 5.06891 22.7363C5.57847 23.2667 6.18943 23.6807 6.8625 23.9517C7.64752 24.2572 8.47671 24.4229 9.315 24.4417C10.44 24.4417 10.7438 24.5 13.4888 24.5C16.2338 24.5 16.5825 24.5 17.6625 24.4417C18.5008 24.4229 19.33 24.2572 20.115 23.9517C20.787 23.682 21.3973 23.2698 21.9068 22.7414C22.4162 22.2131 22.8137 21.5802 23.0738 20.8833C23.3684 20.0692 23.5281 19.2093 23.5463 18.34C23.5463 17.1733 23.6025 16.8583 23.6025 14.0117C23.6025 11.165 23.6025 10.8033 23.5463 9.68333C23.5281 8.81399 23.3684 7.95409 23.0738 7.14C22.8188 6.44108 22.426 5.80506 21.9204 5.27268C21.4148 4.74029 20.8075 4.32328 20.1375 4.04833C19.3525 3.74278 18.5233 3.57711 17.685 3.55833C16.5938 3.5 16.245 3.5 13.5 3.5Z" fill="#B3B3B3"/>
<path d="M13.5 8.61C12.472 8.61 11.4671 8.92612 10.6124 9.51838C9.75769 10.1106 9.09152 10.9524 8.69813 11.9373C8.30474 12.9222 8.20181 14.006 8.40236 15.0515C8.60291 16.0971 9.09792 17.0575 9.82481 17.8113C10.5517 18.5651 11.4778 19.0785 12.486 19.2864C13.4942 19.4944 14.5393 19.3877 15.489 18.9797C16.4387 18.5718 17.2504 17.8809 17.8216 16.9945C18.3927 16.1081 18.6975 15.066 18.6975 14C18.6975 12.5705 18.1499 11.1995 17.1752 10.1887C16.2005 9.17787 14.8785 8.61 13.5 8.61ZM13.5 17.5C12.8325 17.5 12.18 17.2947 11.6249 16.9101C11.0699 16.5256 10.6373 15.9789 10.3819 15.3394C10.1265 14.6999 10.0596 13.9961 10.1898 13.3172C10.3201 12.6383 10.6415 12.0146 11.1135 11.5251C11.5855 11.0356 12.1869 10.7023 12.8416 10.5673C13.4963 10.4322 14.1748 10.5015 14.7916 10.7664C15.4083 11.0313 15.9354 11.4799 16.3062 12.0555C16.6771 12.6311 16.875 13.3078 16.875 14C16.875 14.9283 16.5194 15.8185 15.8865 16.4749C15.2535 17.1313 14.3951 17.5 13.5 17.5Z" fill="#B3B3B3"/>
<path d="M18.9001 9.66C19.5711 9.66 20.1151 9.09588 20.1151 8.4C20.1151 7.70412 19.5711 7.14 18.9001 7.14C18.229 7.14 17.6851 7.70412 17.6851 8.4C17.6851 9.09588 18.229 9.66 18.9001 9.66Z" fill="#B3B3B3"/>
</svg>
