<svg width="28" height="28" viewBox="0 0 28 28" fill="none" xmlns="http://www.w3.org/2000/svg">
<path d="M4.96675 17.8883C5.00758 17.8883 5.04175 17.8558 5.04841 17.8108L5.27341 16.1258L5.04841 14.4017C5.04258 14.3567 5.00675 14.3242 4.96591 14.3242C4.92425 14.3242 4.88758 14.3575 4.88258 14.4017L4.68591 16.1258L4.88258 17.81C4.88758 17.8558 4.92425 17.8883 4.96591 17.8883H4.96675Z" fill="#B3B3B3"/>
<path d="M4.22667 17.2475C4.26667 17.2475 4.3 17.2175 4.30583 17.1725L4.48 16.1258L4.30583 15.0592C4.3 15.015 4.26667 14.9842 4.22667 14.9842C4.18417 14.9842 4.15167 15.015 4.145 15.0592L4 16.1258L4.145 17.1725C4.15167 17.2167 4.18417 17.2475 4.22667 17.2475V17.2475Z" fill="#B3B3B3"/>
<path d="M5.84994 14.0808C5.84827 14.0553 5.83705 14.0314 5.81852 14.0138C5.79999 13.9962 5.7755 13.9862 5.74994 13.9858C5.72441 13.986 5.69991 13.996 5.68148 14.0136C5.66304 14.0313 5.65205 14.0553 5.65078 14.0808L5.46411 16.1258L5.65078 18.0958C5.65247 18.1212 5.66375 18.1449 5.68232 18.1623C5.7009 18.1796 5.72537 18.1892 5.75078 18.1892C5.77626 18.189 5.80074 18.1792 5.81929 18.1617C5.83784 18.1443 5.84909 18.1204 5.85078 18.095L6.06244 16.1258L5.85078 14.0808H5.84994Z" fill="#B3B3B3"/>
<path d="M6.54331 18.2683C6.57296 18.2678 6.60134 18.2562 6.62291 18.2359C6.64449 18.2156 6.6577 18.1879 6.65998 18.1583L6.86081 16.1258L6.66081 14.0242C6.65852 13.9945 6.64519 13.9667 6.62344 13.9463C6.60169 13.926 6.5731 13.9145 6.54331 13.9142C6.51336 13.9141 6.48453 13.9256 6.46281 13.9463C6.44109 13.9669 6.42814 13.9951 6.42665 14.025L6.24915 16.1258L6.42581 18.1583C6.42732 18.1884 6.44038 18.2167 6.46228 18.2374C6.48418 18.258 6.51321 18.2694 6.54331 18.2692V18.2683Z" fill="#B3B3B3"/>
<path d="M7.34163 18.3017C7.37603 18.3017 7.40916 18.2887 7.43426 18.2651C7.45935 18.2416 7.4745 18.2093 7.47663 18.175L7.66496 16.1258L7.47663 14.1758C7.4743 14.1416 7.45905 14.1096 7.43399 14.0863C7.40892 14.0629 7.3759 14.0499 7.34163 14.05C7.30739 14.05 7.27445 14.0631 7.24963 14.0867C7.2248 14.1103 7.21 14.1425 7.20829 14.1767L7.04163 16.1267L7.20829 18.175C7.21 18.2092 7.2248 18.2414 7.24963 18.265C7.27445 18.2886 7.30739 18.3017 7.34163 18.3017V18.3017Z" fill="#B3B3B3"/>
<path d="M8.47505 16.1267L8.29838 12.9558C8.29606 12.9171 8.27911 12.8806 8.25096 12.8539C8.22281 12.8271 8.18555 12.812 8.14671 12.8117C8.10781 12.8118 8.07045 12.8268 8.04225 12.8536C8.01406 12.8804 7.99717 12.917 7.99505 12.9558L7.83838 16.1267L7.99505 18.175C7.99898 18.2125 8.01666 18.2472 8.04466 18.2724C8.07267 18.2976 8.10902 18.3116 8.14671 18.3116C8.1844 18.3116 8.22076 18.2976 8.24876 18.2724C8.27677 18.2472 8.29444 18.2125 8.29838 18.175L8.47505 16.1267V16.1267Z" fill="#B3B3B3"/>
<path d="M8.95917 18.3225C9.00232 18.3225 9.04383 18.3059 9.07503 18.2761C9.10624 18.2463 9.12473 18.2056 9.12667 18.1625V18.1642L9.2925 16.1275L9.12667 12.2308C9.12366 12.1881 9.10458 12.1481 9.07326 12.119C9.04195 12.0898 9.00073 12.0735 8.95792 12.0735C8.9151 12.0735 8.87388 12.0898 8.84257 12.119C8.81125 12.1481 8.79217 12.1881 8.78917 12.2308L8.64417 16.1275L8.79 18.1633C8.79236 18.2064 8.81127 18.247 8.84279 18.2765C8.87431 18.306 8.916 18.3222 8.95917 18.3217V18.3225Z" fill="#B3B3B3"/>
<path d="M9.77579 11.73C9.72799 11.7297 9.68195 11.748 9.6473 11.7809C9.61266 11.8139 9.59211 11.8589 9.58996 11.9067L9.45496 16.1275L9.58996 18.1425C9.59211 18.1902 9.61269 18.2352 9.64736 18.268C9.68202 18.3008 9.72807 18.3188 9.77579 18.3183C9.82357 18.319 9.86973 18.301 9.90445 18.2682C9.93916 18.2353 9.95967 18.1902 9.96162 18.1425L10.1158 16.1275L9.96162 11.9067C9.95988 11.8588 9.93946 11.8135 9.90473 11.7804C9.86999 11.7474 9.82371 11.7293 9.77579 11.73V11.73Z" fill="#B3B3B3"/>
<path d="M10.6 18.3225C10.6525 18.3234 10.7033 18.3036 10.7413 18.2675C10.7793 18.2313 10.8016 18.1816 10.8034 18.1292V18.1308L10.945 16.1275L10.8034 11.765C10.8016 11.7127 10.7795 11.6631 10.7416 11.627C10.7037 11.5908 10.6532 11.571 10.6009 11.5717C10.5484 11.5705 10.4976 11.5903 10.4597 11.6265C10.4217 11.6627 10.3997 11.7125 10.3984 11.765L10.2709 16.1275L10.3984 18.1308C10.4 18.2383 10.49 18.3225 10.6009 18.3225H10.6Z" fill="#B3B3B3"/>
<path d="M11.4317 18.3208C11.4884 18.3215 11.5432 18.2999 11.5842 18.2606C11.6252 18.2214 11.6491 18.1676 11.6508 18.1108V18.1125L11.7817 16.1283L11.6508 11.8758C11.6487 11.8194 11.6246 11.766 11.5836 11.7271C11.5427 11.6882 11.4882 11.6668 11.4317 11.6675C11.3751 11.6666 11.3203 11.6879 11.2792 11.7268C11.2381 11.7658 11.2139 11.8193 11.2117 11.8758L11.0967 16.1283L11.2125 18.1117C11.215 18.2283 11.3117 18.32 11.4317 18.32V18.3208Z" fill="#B3B3B3"/>
<path d="M12.6242 16.1283L12.5059 12.0308C12.5037 11.9698 12.4777 11.9121 12.4335 11.87C12.3892 11.828 12.3303 11.8049 12.2692 11.8058C12.2079 11.8047 12.1486 11.8278 12.1042 11.87C12.0597 11.9123 12.0337 11.9704 12.0317 12.0317L11.9259 16.1283L12.0317 18.1C12.0339 18.1611 12.06 18.219 12.1044 18.2611C12.1489 18.3032 12.2081 18.3261 12.2692 18.325C12.3307 18.3259 12.39 18.3025 12.4343 18.2599C12.4787 18.2173 12.5044 18.1589 12.5059 18.0975V18.1L12.6242 16.1283V16.1283Z" fill="#B3B3B3"/>
<path d="M13.1125 18.3283C13.25 18.3283 13.3633 18.22 13.3658 18.0867L13.4733 16.1292L13.3658 11.2542C13.3636 11.1887 13.3359 11.1266 13.2885 11.0813C13.2412 11.036 13.178 11.011 13.1125 11.0117C13.0469 11.0112 12.9837 11.0362 12.9363 11.0815C12.8889 11.1267 12.8609 11.1887 12.8583 11.2542L12.7625 16.1275L12.8583 18.0875C12.8608 18.2192 12.975 18.3283 13.1125 18.3283V18.3283Z" fill="#B3B3B3"/>
<path d="M13.9533 10.5533C13.8831 10.5522 13.8153 10.5786 13.7643 10.6269C13.7134 10.6752 13.6834 10.7415 13.6808 10.8117L13.5699 16.13L13.6816 18.0592C13.6842 18.1289 13.714 18.1948 13.7647 18.2428C13.8153 18.2907 13.8827 18.317 13.9524 18.3158C14.0225 18.3167 14.09 18.2901 14.1405 18.2416C14.1911 18.1931 14.2205 18.1267 14.2224 18.0567V18.0592L14.3441 16.13L14.2224 10.8125C14.2205 10.7426 14.1912 10.6764 14.1408 10.6279C14.0905 10.5794 14.0232 10.5527 13.9533 10.5533V10.5533Z" fill="#B3B3B3"/>
<path d="M14.7216 18.33L21.5391 18.3333C22.8983 18.3333 24 17.2767 24 15.9725C24 14.6692 22.8983 13.6125 21.5391 13.6125C21.2025 13.6125 20.8808 13.6783 20.5875 13.7958C20.3933 11.6692 18.5333 10 16.265 10C15.7108 10 15.17 10.105 14.6925 10.2825C14.5066 10.3517 14.4566 10.4225 14.455 10.56V18.0508C14.4576 18.1219 14.4861 18.1896 14.5353 18.241C14.5844 18.2925 14.6507 18.3241 14.7216 18.33V18.33Z" fill="#B3B3B3"/>
</svg>
