<svg width="28" height="28" viewBox="0 0 28 28" fill="none" xmlns="http://www.w3.org/2000/svg">
<path d="M13.9963 5C9.03575 5 5 9.0365 5 13.997C5 18.962 9.03575 23 13.9963 23C18.9613 23 23 18.9613 23 13.997C23 9.0365 18.9613 5 13.9963 5ZM9.431 17.303C10.4611 16.9875 11.5322 16.8262 12.6095 16.8245C14.42 16.8245 16.2072 17.2835 17.7785 18.152C17.8722 18.203 17.957 18.371 17.996 18.581C18.0335 18.791 18.0185 19.0062 17.957 19.118C17.928 19.1712 17.8888 19.218 17.8415 19.2559C17.7943 19.2938 17.74 19.3219 17.6818 19.3386C17.6237 19.3554 17.5627 19.3604 17.5026 19.3534C17.4425 19.3465 17.3843 19.3276 17.3315 19.298C16.1774 18.6649 14.9079 18.27 13.5983 18.1368C12.2887 18.0036 10.9657 18.1347 9.70775 18.5225C9.65 18.5412 9.58911 18.5482 9.52864 18.5431C9.46816 18.538 9.40929 18.5209 9.35548 18.4929C9.30166 18.4648 9.25397 18.4263 9.21517 18.3796C9.17637 18.333 9.14725 18.279 9.1295 18.221C9.04925 17.9585 9.215 17.3735 9.431 17.303ZM9.03875 13.988C10.2024 13.6719 11.4029 13.5117 12.6088 13.5118C14.7793 13.5118 16.934 14.0367 18.8412 15.0312C18.9755 15.0988 19.0738 15.2143 19.1188 15.3553C19.1415 15.4265 19.1498 15.5015 19.1431 15.5759C19.1364 15.6504 19.1148 15.7227 19.0798 15.7887C18.9095 16.1217 18.71 16.346 18.5848 16.346C18.4934 16.3456 18.4034 16.3235 18.3223 16.2815C16.5592 15.361 14.5984 14.8838 12.6095 14.891C11.5032 14.8888 10.4017 15.0364 9.335 15.3298C9.26384 15.3492 9.18955 15.3544 9.11636 15.3452C9.04317 15.3359 8.97252 15.3123 8.90845 15.2758C8.84438 15.2392 8.78813 15.1904 8.74293 15.1321C8.69773 15.0738 8.66445 15.0072 8.645 14.936C8.561 14.6195 8.75375 14.066 9.03875 13.988ZM8.9375 11.8235C8.85308 11.8452 8.76521 11.8499 8.67895 11.8374C8.5927 11.8249 8.50977 11.7955 8.43495 11.7508C8.36013 11.7061 8.2949 11.647 8.24303 11.577C8.19117 11.507 8.15368 11.4274 8.13275 11.3427C8.0405 10.9692 8.27375 10.5357 8.61275 10.4503C9.92038 10.1282 11.262 9.96475 12.6088 9.9635C15.1962 9.9635 17.6757 10.5455 19.9767 11.6938C20.1348 11.7724 20.2553 11.9105 20.3115 12.0779C20.3678 12.2453 20.3553 12.4281 20.2767 12.5862C20.1695 12.8022 19.937 13.0347 19.6805 13.0347C19.5799 13.0344 19.4806 13.0121 19.3895 12.9695C17.2854 11.914 14.9627 11.3678 12.6088 11.375C11.3825 11.375 10.1473 11.5257 8.9375 11.8235Z" fill="#B3B3B3"/>
</svg>
