<svg width="28" height="28" viewBox="0 0 28 28" fill="none" xmlns="http://www.w3.org/2000/svg">
<path fill-rule="evenodd" clip-rule="evenodd" d="M24.5 8.06192C23.7597 8.39617 22.973 8.61645 22.1667 8.71525C23.0275 8.18253 23.6628 7.35218 23.9517 6.38191C23.1563 6.86202 22.2841 7.20143 21.3733 7.38525C20.991 6.98168 20.5293 6.66145 20.0174 6.44463C19.5055 6.22781 18.9543 6.11908 18.3983 6.12525C17.8606 6.1283 17.3287 6.23725 16.833 6.44587C16.3374 6.65449 15.8876 6.9587 15.5096 7.34113C15.1315 7.72355 14.8324 8.1767 14.6294 8.67471C14.4265 9.17271 14.3236 9.70582 14.3267 10.2436C14.3257 10.5615 14.3609 10.8786 14.4317 11.1886C12.8087 11.1043 11.222 10.677 9.77619 9.93498C8.33033 9.19295 7.05811 8.15298 6.04334 6.88358C5.52295 7.79184 5.36364 8.86276 5.59712 9.88317C5.8306 10.9036 6.43976 11.7987 7.30334 12.3902C6.6565 12.3703 6.02408 12.1941 5.46001 11.8769C5.45564 12.8245 5.77819 13.7447 6.37326 14.4821C6.96834 15.2196 7.79954 15.7293 8.72668 15.9252C8.12963 16.0891 7.50282 16.1131 6.89501 15.9952C7.1508 16.8094 7.65521 17.5229 8.33739 18.0356C9.01956 18.5482 9.84522 18.8343 10.6983 18.8536C9.26271 19.9962 7.48154 20.6174 5.64668 20.6152C5.32418 20.6342 5.00084 20.6342 4.67834 20.6152C6.5325 21.8204 8.69693 22.4609 10.9083 22.4586C12.4416 22.4572 13.9593 22.1514 15.3735 21.5591C16.7876 20.9667 18.0702 20.0995 19.1467 19.0078C20.2232 17.9161 21.0724 16.6215 21.6448 15.1992C22.2173 13.7768 22.5018 12.255 22.4817 10.7219C22.4817 10.543 22.4817 10.3641 22.4817 10.1852C23.2746 9.60226 23.958 8.88337 24.5 8.06192Z" fill="#B3B3B3"/>
</svg>
