<svg width="28" height="28" viewBox="0 0 28 28" fill="none" xmlns="http://www.w3.org/2000/svg">
<path d="M23 21V7C23 5.9 22.097 5 20.995 5H7.005C5.855 5 5 5.853 5 7V21C5 22.148 5.855 23 7.005 23H20.995C21.5257 22.9992 22.0344 22.7884 22.4101 22.4136C22.7858 22.0389 22.9979 21.5306 23 21ZM19.184 15.607C19.184 15.607 20.316 16.724 20.595 17.242C20.603 17.253 20.606 17.263 20.609 17.267C20.722 17.457 20.751 17.607 20.694 17.717C20.6 17.9 20.28 17.992 20.171 18H18.172C18.032 18 17.742 17.964 17.39 17.721C17.12 17.533 16.853 17.222 16.593 16.919C16.205 16.469 15.869 16.079 15.531 16.079C15.4881 16.0789 15.4455 16.086 15.405 16.1C15.148 16.182 14.822 16.547 14.822 17.522C14.822 17.827 14.582 18.001 14.412 18.001H13.496C13.184 18.001 11.559 17.892 10.12 16.373C8.354 14.513 6.768 10.782 6.754 10.749C6.654 10.508 6.861 10.377 7.086 10.377H9.106C9.377 10.377 9.464 10.541 9.526 10.688C9.596 10.855 9.86 11.529 10.292 12.287C10.995 13.52 11.428 14.022 11.773 14.022C11.8375 14.0216 11.9009 14.0048 11.957 13.973C12.408 13.724 12.324 12.116 12.304 11.784C12.304 11.721 12.303 11.065 12.073 10.75C11.907 10.522 11.626 10.435 11.456 10.402C11.5253 10.3065 11.6165 10.229 11.722 10.176C12.031 10.022 12.588 10 13.142 10H13.45C14.051 10.008 14.207 10.047 14.424 10.102C14.863 10.207 14.872 10.492 14.833 11.462C14.822 11.738 14.81 12.051 14.81 12.418C14.81 12.497 14.807 12.584 14.807 12.674C14.793 13.17 14.777 13.731 15.127 13.961C15.1723 13.9893 15.2246 14.0046 15.278 14.005C15.4 14.005 15.765 14.005 16.754 12.308C17.189 11.559 17.524 10.675 17.547 10.609C17.5819 10.5376 17.6325 10.4751 17.695 10.426C17.7462 10.3994 17.8033 10.386 17.861 10.387H20.236C20.496 10.387 20.672 10.426 20.705 10.525C20.762 10.684 20.694 11.169 19.609 12.635L19.126 13.275C18.142 14.563 18.142 14.629 19.184 15.607Z" fill="#B3B3B3"/>
</svg>
