<svg width="28" height="28" viewBox="0 0 28 28" fill="none" xmlns="http://www.w3.org/2000/svg">
<path d="M24 21.7778V6.22222C24 5 22.9967 4 21.7722 4H6.22778C4.95 4 4 4.94778 4 6.22222V21.7778C4 23.0533 4.95 24 6.22778 24H21.7722C22.3618 23.9991 22.9271 23.7649 23.3446 23.3485C23.762 22.9321 23.9977 22.3674 24 21.7778ZM19.76 15.7856C19.76 15.7856 21.0178 17.0267 21.3278 17.6022C21.3367 17.6144 21.34 17.6256 21.3433 17.63C21.4689 17.8411 21.5011 18.0078 21.4378 18.13C21.3333 18.3333 20.9778 18.4356 20.8567 18.4444H18.6356C18.48 18.4444 18.1578 18.4044 17.7667 18.1344C17.4667 17.9256 17.17 17.58 16.8811 17.2433C16.45 16.7433 16.0767 16.31 15.7011 16.31C15.6535 16.3099 15.6061 16.3178 15.5611 16.3333C15.2756 16.4244 14.9133 16.83 14.9133 17.9133C14.9133 18.2522 14.6467 18.4456 14.4578 18.4456H13.44C13.0933 18.4456 11.2878 18.3244 9.68889 16.6367C7.72667 14.57 5.96444 10.4244 5.94889 10.3878C5.83778 10.12 6.06778 9.97444 6.31778 9.97444H8.56222C8.86333 9.97444 8.96 10.1567 9.02889 10.32C9.10667 10.5056 9.4 11.2544 9.88 12.0967C10.6611 13.4667 11.1422 14.0244 11.5256 14.0244C11.5972 14.024 11.6676 14.0053 11.73 13.97C12.2311 13.6933 12.1378 11.9067 12.1156 11.5378C12.1156 11.4678 12.1144 10.7389 11.8589 10.3889C11.6744 10.1356 11.3622 10.0389 11.1733 10.0022C11.2504 9.89609 11.3517 9.80998 11.4689 9.75111C11.8122 9.58 12.4311 9.55556 13.0467 9.55556H13.3889C14.0567 9.56444 14.23 9.60778 14.4711 9.66889C14.9589 9.78556 14.9689 10.1022 14.9256 11.18C14.9133 11.4867 14.9 11.8344 14.9 12.2422C14.9 12.33 14.8967 12.4267 14.8967 12.5267C14.8811 13.0778 14.8633 13.7011 15.2522 13.9567C15.3026 13.9882 15.3606 14.0051 15.42 14.0056C15.5556 14.0056 15.9611 14.0056 17.06 12.12C17.5433 11.2878 17.9156 10.3056 17.9411 10.2322C17.9799 10.1529 18.0361 10.0834 18.1056 10.0289C18.1625 9.99933 18.2259 9.98443 18.29 9.98556H20.9289C21.2178 9.98556 21.4133 10.0289 21.45 10.1389C21.5133 10.3156 21.4378 10.8544 20.2322 12.4833L19.6956 13.1944C18.6022 14.6256 18.6022 14.6989 19.76 15.7856Z" fill="#B3B3B3"/>
</svg>
