<svg width="28" height="28" viewBox="0 0 28 28" fill="none" xmlns="http://www.w3.org/2000/svg">
<path d="M23.5812 9.09302C23.468 8.6891 23.2474 8.32341 22.943 8.03483C22.6299 7.73737 22.2462 7.52459 21.8281 7.41658C20.2633 7.00413 13.9942 7.00413 13.9942 7.00413C11.3806 6.9744 8.76773 7.10518 6.17022 7.39575C5.7521 7.51174 5.36913 7.72927 5.05537 8.02899C4.74708 8.32562 4.52378 8.6914 4.40713 9.09218C4.12691 10.6018 3.99076 12.1346 4.00051 13.6699C3.99052 15.2039 4.12633 16.7362 4.40713 18.2476C4.52128 18.6467 4.74375 19.0109 5.05287 19.305C5.362 19.5991 5.74695 19.8116 6.17022 19.9241C7.75584 20.3357 13.9942 20.3357 13.9942 20.3357C16.611 20.3654 19.2273 20.2347 21.8281 19.9441C22.2462 19.836 22.6299 19.6233 22.943 19.3258C23.2513 19.0317 23.4704 18.6659 23.5804 18.2676C23.8679 16.7586 24.0077 15.2252 23.9978 13.6891C24.0194 12.1464 23.8798 10.6058 23.5812 9.09218V9.09302ZM12.0011 16.5229V10.8178L17.2171 13.6707L12.0011 16.5229Z" fill="#B3B3B3"/>
</svg>
