<svg width="28" height="28" viewBox="0 0 28 28" fill="none" xmlns="http://www.w3.org/2000/svg">
<path d="M22.6233 9.88134C22.5214 9.51786 22.3229 9.18878 22.0489 8.92909C21.7672 8.66141 21.4219 8.46994 21.0457 8.37273C19.6376 8.00158 13.996 8.00158 13.996 8.00158C11.6442 7.97482 9.29285 8.09251 6.95539 8.35399C6.57913 8.45837 6.2345 8.65413 5.95215 8.92384C5.67473 9.19077 5.47378 9.51993 5.36881 9.88059C5.11664 11.239 4.99413 12.6184 5.0029 14C4.99391 15.3804 5.11612 16.7593 5.36881 18.1194C5.47153 18.4786 5.67173 18.8062 5.94991 19.0709C6.22808 19.3356 6.57449 19.5268 6.95539 19.628C8.38227 19.9984 13.996 19.9984 13.996 19.9984C16.3509 20.0252 18.7052 19.9075 21.0457 19.646C21.4219 19.5488 21.7672 19.3573 22.0489 19.0897C22.3264 18.825 22.5236 18.4958 22.6225 18.1374C22.8813 16.7795 23.0071 15.3996 22.9982 14.0173C23.0176 12.6291 22.892 11.2427 22.6233 9.88059V9.88134ZM12.2025 16.5673V11.4334L16.8963 14.0008L12.2025 16.5673Z" fill="#B3B3B3"/>
</svg>
