<svg width="326" height="99" viewBox="0 0 326 99" fill="none" xmlns="http://www.w3.org/2000/svg">
<path d="M0 0H326V99H0V0Z" fill="white"/>
<g clip-path="url(#clip0_68_527)">
<path d="M37.1836 43.5363V48.064H28.2859V50.0103H35.6603V54.5612H28.2859V56.5075H37.1836V61.0352H22V43.5363H37.1836Z" fill="#131313"/>
<path d="M54.3483 46.3348C55.1541 47.4716 55.6206 48.8575 55.7496 50.496H49.6564C49.5592 48.8255 48.7463 47.9893 47.2142 47.9893C45.4258 47.9893 44.5298 49.425 44.5298 52.2982C44.5298 55.1537 45.424 56.5823 47.2142 56.5823C48.0041 56.5823 48.5996 56.4115 49.0025 56.0717C49.4055 55.7141 49.6546 55.1145 49.7518 54.2712H55.7479C55.5871 56.6232 54.6929 58.4254 53.0635 59.6743C51.4519 60.8912 49.4214 61.4996 46.972 61.4996C44.4414 61.4996 42.3385 60.7044 40.6614 59.1139C39.0003 57.5074 38.1715 55.2355 38.1715 52.2982C38.1715 49.393 39.018 47.13 40.7092 45.5075C42.418 43.885 44.5051 43.0737 46.9703 43.0737C50.3421 43.0737 52.8002 44.1607 54.3483 46.3348Z" fill="#131313"/>
<path d="M59.0861 59.0409C57.4744 57.4024 56.6686 55.1554 56.6686 52.2982C56.6686 49.4428 57.4744 47.1959 59.0861 45.5555C60.7137 43.901 62.9951 43.0737 65.9286 43.0737C68.8622 43.0737 71.1348 43.901 72.7464 45.5555C74.374 47.2261 75.1887 49.4748 75.1887 52.2982C75.1887 55.1216 74.374 57.3686 72.7464 59.0409C71.1188 60.6795 68.8463 61.4996 65.9286 61.4996C62.9951 61.4978 60.7137 60.6795 59.0861 59.0409ZM68.0811 49.1831C67.581 48.3878 66.8635 47.9911 65.9286 47.9911C64.9938 47.9911 64.2693 48.3967 63.7532 49.208C63.269 49.9712 63.0287 51.0013 63.0287 52.3C63.0287 53.5987 63.2708 54.6288 63.7532 55.3903C64.2693 56.1855 64.9938 56.5823 65.9286 56.5823C66.8635 56.5823 67.581 56.1855 68.0811 55.3903C68.5653 54.6288 68.8056 53.597 68.8056 52.3C68.8056 50.9835 68.5635 49.9463 68.0811 49.1831Z" fill="#131313"/>
<path d="M48.0147 81.9999H41.7288V69.4645H37.1837V64.4991H52.5846V69.4645H48.0147V81.9999V81.9999Z" fill="#131313"/>
<path d="M69.3852 75.7446C69.82 76.5399 70.0373 77.8777 70.0373 79.76C70.0373 80.799 70.214 81.5462 70.5692 81.9998H64.1385C63.8645 81.4964 63.7267 80.7011 63.7267 79.6141C63.7267 77.2782 63.0905 76.1093 61.8164 76.1093H60.1004V81.9998H53.8146V64.5009H62.905C67.7082 64.5009 70.1098 66.3742 70.1098 70.1227C70.1098 72.1028 69.1908 73.4496 67.353 74.163C68.2737 74.405 68.9505 74.9334 69.3852 75.7446ZM60.1022 71.5585H62.085C63.1965 71.5585 63.7532 71.1368 63.7532 70.2935C63.7532 69.4502 63.1965 69.0286 62.085 69.0286H60.1022V71.5585Z" fill="#131313"/>
<path d="M77.1219 81.9998H70.6912L76.9523 64.5009H83.6252L89.8863 81.9998H83.4555L82.731 79.4931H77.8465L77.1219 81.9998ZM80.2658 70.6333L78.9845 75.234H81.5717L80.2658 70.6333Z" fill="#131313"/>
<path d="M98.784 64.4991C101.589 64.4991 103.748 65.2464 105.263 66.739C106.793 68.2477 107.56 70.4217 107.56 73.2611C107.56 76.0685 106.811 78.2354 105.312 79.76C103.829 81.2527 101.749 81.9999 99.0739 81.9999H90.6373V64.5009H98.784V64.4991ZM96.9232 77.0825H97.8174C100.074 77.0825 101.202 75.8087 101.202 73.2611C101.202 70.6974 100.072 69.4147 97.8174 69.4147H96.9232V77.0825Z" fill="#131313"/>
<path d="M124 64.4991V69.0269H115.102V70.9732H122.477V75.5241H115.102V77.4721H124V81.9999H108.816V64.5009H124V64.4991Z" fill="#131313"/>
<path d="M49.8702 34.4756C49.7642 34.9631 49.7713 35.3847 49.7624 35.801C49.7377 36.9912 49.5999 38.169 49.462 39.3485C49.4479 39.4623 49.3949 39.5726 49.3595 39.6847C49.303 39.8698 49.2093 39.9018 49.0149 39.8413C48.6632 39.7292 48.3664 39.5211 48.05 39.3467C45.9612 38.1903 44.3549 36.5838 43.3829 34.36C42.5064 32.3532 42.3208 30.277 42.7626 28.1492C42.9818 27.0924 43.2857 26.0517 43.4942 24.9896C43.7081 23.9079 43.7487 22.8226 43.6179 21.7267C43.3847 19.7929 42.5947 18.0778 41.6263 16.4251C41.4054 16.0497 41.1598 15.6939 40.9142 15.3363C40.8576 15.2545 40.7657 15.1495 40.8452 15.0499C40.9283 14.9449 41.0414 15.0285 41.1333 15.0694C43.2256 16.0177 45.2349 17.1083 47.1205 18.4337C48.5484 19.4371 49.8702 20.5632 50.9818 21.8993C52.9063 24.2139 54.138 26.8238 54.1291 29.9301C54.1256 31.1772 54.0072 32.4012 53.6608 33.5896C53.1996 35.1677 52.5122 36.6443 51.4943 37.9484C51.314 38.1796 51.132 38.4091 50.9464 38.6369C50.8828 38.7151 50.8351 38.845 50.7079 38.8094C50.5789 38.7738 50.5524 38.6386 50.5347 38.5248C50.4569 38.0142 50.3827 37.5018 50.3156 36.9894C50.2184 36.2315 50.1282 35.4719 49.9657 34.7247C49.9515 34.6624 49.9197 34.6037 49.8702 34.4756Z" fill="url(#paint0_linear_68_527)"/>
<path d="M60.7189 35.1267C59.1497 35.7547 57.7748 36.6656 56.5749 37.8878C55.3874 39.0958 54.4914 40.4942 53.7333 42.001C53.6979 41.9904 53.6626 41.9815 53.6272 41.9708C53.6272 41.4744 53.5831 40.9727 53.6361 40.4817C53.7456 39.4783 53.8287 38.4731 54.092 37.4875C54.4384 36.1924 54.9526 34.9826 55.6383 33.8351C56.2409 32.8246 57.0591 31.9955 57.8508 31.154C58.6231 30.3339 59.6427 29.8571 60.696 29.4692C62.6964 28.7309 64.7958 28.3306 66.8051 27.6261C68.1305 27.16 69.3781 26.5587 70.3642 25.5126C70.4261 25.4467 70.4897 25.34 70.5922 25.3774C70.7177 25.4236 70.6823 25.5588 70.6753 25.6567C70.5957 26.7828 70.4826 27.9072 70.2582 29.012C70.0444 30.0599 69.797 31.1006 69.4276 32.1094C68.6147 34.3261 67.4926 36.3578 65.9392 38.1422C64.4088 39.9 62.4738 41.019 60.3037 41.7609C59.109 42.1701 57.8702 42.3302 56.612 42.332C56.0359 42.3337 55.9811 42.259 56.1596 41.6879C56.5502 40.4461 57.2358 39.3716 58.0258 38.3539C58.7839 37.379 59.6021 36.461 60.4821 35.5946C60.597 35.4825 60.6924 35.3509 60.7967 35.2281C60.7684 35.1961 60.7437 35.1623 60.7189 35.1267Z" fill="url(#paint1_linear_68_527)"/>
</g>
<path d="M295.442 77H256.558C251.831 77 248 73.1689 248 68.4426V29.5574C248 24.8311 251.831 21 256.558 21H295.442C300.169 21 304 24.8311 304 29.5574V68.4413C304 73.1676 300.169 77 295.442 77Z" fill="white"/>
<path d="M270.056 54.4766C269.95 54.964 269.957 55.3857 269.948 55.802C269.923 56.9922 269.786 58.1699 269.648 59.3495C269.634 59.4633 269.581 59.5736 269.545 59.6857C269.489 59.8707 269.395 59.9028 269.201 59.8423C268.849 59.7302 268.552 59.522 268.236 59.3477C266.147 58.1913 264.541 56.5848 263.569 54.3609C262.692 52.3541 262.507 50.278 262.948 48.1502C263.168 47.0934 263.472 46.0526 263.68 44.9905C263.894 43.9089 263.935 42.8236 263.804 41.7277C263.57 39.7939 262.781 38.0788 261.812 36.4261C261.591 36.0507 261.346 35.6949 261.1 35.3373C261.043 35.2554 260.951 35.1505 261.031 35.0508C261.114 34.9459 261.227 35.0295 261.319 35.0704C263.411 36.0187 265.421 37.1092 267.306 38.4346C268.734 39.438 270.056 40.5642 271.168 41.9003C273.092 44.2149 274.324 46.8248 274.315 49.931C274.311 51.1782 274.193 52.4022 273.847 53.5906C273.385 55.1686 272.698 56.6453 271.68 57.9493C271.5 58.1806 271.318 58.4101 271.132 58.6378C271.069 58.7161 271.021 58.846 270.894 58.8104C270.765 58.7748 270.738 58.6396 270.72 58.5257C270.643 58.0152 270.569 57.5028 270.501 56.9904C270.404 56.2325 270.314 55.4729 270.151 54.7256C270.137 54.6634 270.106 54.6047 270.056 54.4766Z" fill="url(#paint2_linear_68_527)"/>
<path d="M280.905 55.1277C279.335 55.7557 277.961 56.6666 276.761 57.8888C275.573 59.0968 274.677 60.4951 273.919 62.002C273.884 61.9913 273.848 61.9824 273.813 61.9718C273.813 61.4754 273.769 60.9737 273.822 60.4827C273.931 59.4793 274.014 58.4741 274.278 57.4885C274.624 56.1933 275.138 54.9836 275.824 53.8361C276.427 52.8255 277.245 51.9965 278.037 51.155C278.809 50.3348 279.829 49.858 280.882 49.4702C282.882 48.7319 284.982 48.3316 286.991 47.6271C288.316 47.161 289.564 46.5596 290.55 45.5135C290.612 45.4477 290.675 45.341 290.778 45.3783C290.903 45.4246 290.868 45.5598 290.861 45.6576C290.782 46.7838 290.668 47.9082 290.444 49.013C290.23 50.0609 289.983 51.1016 289.613 52.1104C288.801 54.3271 287.678 56.3588 286.125 58.1432C284.595 59.9009 282.66 61.02 280.489 61.7618C279.295 62.171 278.056 62.3311 276.798 62.3329C276.222 62.3347 276.167 62.26 276.345 61.6889C276.736 60.4471 277.422 59.3725 278.212 58.3549C278.97 57.38 279.788 56.462 280.668 55.5956C280.783 55.4835 280.878 55.3518 280.982 55.2291C280.954 55.1971 280.929 55.1633 280.905 55.1277Z" fill="url(#paint3_linear_68_527)"/>
<rect x="248.5" y="21.5" width="55" height="55" rx="7.5" stroke="#D5D5D5"/>
<defs>
<linearGradient id="paint0_linear_68_527" x1="45.1291" y1="39.8273" x2="67.2823" y2="24.0415" gradientUnits="userSpaceOnUse">
<stop stop-color="#60E312"/>
<stop offset="1" stop-color="#B5ED31"/>
</linearGradient>
<linearGradient id="paint1_linear_68_527" x1="59.1434" y1="42.3035" x2="74.4682" y2="21.771" gradientUnits="userSpaceOnUse">
<stop stop-color="#60E312"/>
<stop offset="1" stop-color="#B5ED31"/>
</linearGradient>
<linearGradient id="paint2_linear_68_527" x1="265.315" y1="59.8283" x2="287.468" y2="44.0425" gradientUnits="userSpaceOnUse">
<stop stop-color="#60E312"/>
<stop offset="1" stop-color="#B5ED31"/>
</linearGradient>
<linearGradient id="paint3_linear_68_527" x1="279.329" y1="62.3045" x2="294.654" y2="41.7719" gradientUnits="userSpaceOnUse">
<stop stop-color="#60E312"/>
<stop offset="1" stop-color="#B5ED31"/>
</linearGradient>
<clipPath id="clip0_68_527">
<rect width="102" height="67" fill="white" transform="translate(22 15)"/>
</clipPath>
</defs>
</svg>
