<svg width="150" height="150" viewBox="0 0 150 150" fill="none" xmlns="http://www.w3.org/2000/svg">
<path d="M139.495 0H10.5051C4.70329 0 0 4.70329 0 10.5051V139.495C0 145.297 4.70329 150 10.5051 150H139.495C145.297 150 150 145.297 150 139.495V10.5051C150 4.70329 145.297 0 139.495 0Z" fill="#131313"/>
<path d="M77.8728 38.2068H67.6322L53.6084 61.1288H53.1508L39.1322 38.2068H28.8864L47.4559 67.5051L28.7745 96.8085H39.0711L53.1508 74.2017H53.6084L67.6881 96.8085H77.9898L59.6186 67.5051L77.8728 38.2068Z" fill="url(#paint0_linear_62_444)"/>
<path d="M121.485 74.3746C121.485 70.3882 120.951 66.9983 119.883 64.2051C118.951 61.6323 117.455 59.3008 115.505 57.3814C113.714 55.6636 111.576 54.3479 109.236 53.522C106.92 52.7021 104.482 52.2858 102.025 52.2915C98.3143 52.1667 94.6484 53.1361 91.4841 55.0791C88.3197 57.022 85.7966 59.8526 84.2289 63.2186C82.4754 66.9375 81.6052 71.0113 81.6865 75.122C81.6865 79.6814 82.5339 83.6543 84.2289 87.0407C85.8106 90.3132 88.3174 93.0499 91.439 94.9119C94.5576 96.7729 98.2865 97.7017 102.625 97.6983C105.55 97.7481 108.458 97.2496 111.198 96.2288C113.571 95.3324 115.712 93.9144 117.463 92.0796C119.12 90.3136 120.315 88.1651 120.941 85.8254L112.841 84.3661C112.37 85.675 111.606 86.8592 110.609 87.8288C109.621 88.7743 108.44 89.4927 107.146 89.9339C105.718 90.4152 104.219 90.6507 102.712 90.6305C100.423 90.6844 98.1606 90.1281 96.1577 89.0186C94.2691 87.9159 92.7507 86.2772 91.795 84.3102C90.7821 82.1532 90.2611 79.7982 90.2695 77.4153H121.505L121.485 74.3746ZM90.2594 70.9983C90.3493 69.1474 90.8348 67.3373 91.6831 65.6898C92.6287 63.8281 94.0496 62.2494 95.8018 61.1135C97.6738 59.9164 99.8599 59.304 102.081 59.3542C104.118 59.3097 106.127 59.8383 107.878 60.8797C109.516 61.879 110.847 63.309 111.727 65.0136C112.669 66.8694 113.14 68.9279 113.1 71.0085L90.2594 70.9983Z" fill="url(#paint1_linear_62_444)"/>
<path d="M34.1696 107.431V106.581H40.0678V107.431H37.5967V114.453H36.6458V107.431H34.1696Z" fill="white"/>
<path d="M42.3306 110.903V114.463H41.4204V106.592H42.3306V109.485H42.4068C42.5394 109.186 42.7547 108.932 43.0272 108.753C43.3649 108.558 43.7514 108.464 44.1407 108.483C44.5074 108.476 44.8703 108.558 45.1984 108.722C45.5032 108.889 45.7484 109.147 45.9001 109.459C46.0823 109.85 46.1694 110.279 46.1543 110.71V114.463H45.2543V110.771C45.2786 110.375 45.1473 109.984 44.8882 109.683C44.7562 109.55 44.5971 109.446 44.4217 109.379C44.2462 109.313 44.0585 109.285 43.8713 109.297C43.5938 109.293 43.3197 109.358 43.0729 109.485C42.84 109.612 42.6478 109.802 42.5187 110.034C42.3848 110.304 42.3202 110.602 42.3306 110.903V110.903Z" fill="white"/>
<path d="M50.2881 114.575C49.7721 114.589 49.2626 114.456 48.8186 114.193C48.4058 113.94 48.0755 113.573 47.8678 113.136C47.6392 112.637 47.5262 112.093 47.5372 111.544C47.5274 110.994 47.6403 110.448 47.8678 109.947C48.0718 109.507 48.3939 109.132 48.7982 108.864C49.2154 108.599 49.702 108.462 50.1965 108.473C50.5062 108.474 50.8137 108.525 51.1067 108.625C51.4116 108.737 51.6903 108.91 51.9254 109.134C52.1858 109.39 52.3856 109.701 52.5101 110.044C52.6681 110.489 52.7422 110.96 52.7287 111.432V111.819H48.183V111.036H51.8084C51.8139 110.726 51.7459 110.419 51.6101 110.141C51.4829 109.889 51.2896 109.676 51.0508 109.525C50.7937 109.369 50.4973 109.29 50.1965 109.297C49.8644 109.288 49.5379 109.383 49.261 109.566C49.0006 109.738 48.7915 109.977 48.6559 110.258C48.5142 110.542 48.4411 110.855 48.4423 111.173V111.681C48.4296 112.071 48.5098 112.458 48.6762 112.81C48.8155 113.104 49.0407 113.349 49.322 113.512C49.6162 113.679 49.95 113.763 50.2881 113.756C50.5075 113.758 50.7257 113.724 50.9339 113.654C51.1234 113.588 51.2967 113.482 51.4423 113.344C51.5868 113.201 51.6979 113.027 51.7678 112.836L52.6423 113.085C52.551 113.377 52.3925 113.643 52.1796 113.863C51.9502 114.089 51.6743 114.262 51.3712 114.371C51.0264 114.507 50.6588 114.576 50.2881 114.575V114.575Z" fill="white"/>
<path d="M54.6966 106.581L56.7305 109.856H56.7915L58.8254 106.581H59.9441L57.4729 110.517L59.9441 114.453H58.8254L56.7915 111.239H56.7305L54.6966 114.453H53.5729L56.1153 110.517L53.5729 106.581H54.6966Z" fill="white"/>
<path d="M63.2237 114.575C62.7077 114.589 62.1982 114.456 61.7542 114.193C61.3414 113.94 61.0111 113.573 60.8034 113.136C60.5748 112.637 60.4619 112.093 60.4729 111.544C60.463 110.994 60.5759 110.448 60.8034 109.947C61.0074 109.507 61.3296 109.132 61.7339 108.864C62.152 108.601 62.638 108.465 63.1322 108.473C63.4419 108.473 63.7493 108.525 64.0423 108.625C64.3677 108.738 64.6631 108.924 64.9062 109.168C65.1493 109.412 65.3338 109.708 65.4457 110.034C65.6056 110.479 65.6815 110.949 65.6695 111.422V111.808H61.0932V111.025H64.7186C64.7241 110.716 64.6561 110.409 64.5203 110.13C64.3945 109.878 64.2008 109.665 63.961 109.515C63.7039 109.359 63.4075 109.28 63.1068 109.286C62.7747 109.279 62.4484 109.373 62.1712 109.556C61.912 109.729 61.7031 109.967 61.5661 110.247C61.4244 110.532 61.3513 110.845 61.3526 111.163V111.671C61.3431 112.06 61.4231 112.447 61.5864 112.8C61.7273 113.093 61.9521 113.337 62.2322 113.502C62.5264 113.668 62.8602 113.753 63.1983 113.746C63.4177 113.748 63.636 113.714 63.8441 113.644C64.0336 113.578 64.2069 113.472 64.3526 113.334C64.4987 113.192 64.61 113.018 64.6779 112.825L65.5525 113.075C65.4632 113.367 65.3044 113.634 65.0898 113.853C64.8604 114.079 64.5845 114.252 64.2814 114.361C63.9454 114.498 63.5865 114.57 63.2237 114.575V114.575Z" fill="white"/>
<path d="M67.9577 110.903V114.463H67.0475V108.559H67.9271V109.485H68.0034C68.1381 109.186 68.3573 108.933 68.6339 108.758C68.9622 108.562 69.3404 108.467 69.7221 108.483C70.0863 108.474 70.4469 108.558 70.7695 108.727C71.0743 108.894 71.3196 109.152 71.4712 109.464C71.6505 109.855 71.7359 110.281 71.7204 110.71V114.463H70.8153V110.771C70.8397 110.377 70.7103 109.989 70.4543 109.688C70.3234 109.553 70.1645 109.448 69.9889 109.38C69.8133 109.313 69.6251 109.284 69.4373 109.297C69.168 109.293 68.9021 109.358 68.6645 109.485C68.436 109.612 68.2489 109.803 68.1254 110.034C68.0008 110.306 67.9432 110.604 67.9577 110.903V110.903Z" fill="white"/>
<path d="M75.7627 114.575C75.2679 114.585 74.7806 114.453 74.3593 114.193C73.9554 113.932 73.6317 113.564 73.4237 113.131C73.1912 112.631 73.0763 112.085 73.0881 111.534C73.0753 110.978 73.1901 110.427 73.4237 109.922C73.6277 109.477 73.9584 109.102 74.3745 108.844C74.7906 108.587 75.2735 108.457 75.7627 108.473C76.2511 108.458 76.7329 108.588 77.148 108.846C77.5631 109.104 77.893 109.478 78.0966 109.922C78.3347 110.425 78.4514 110.977 78.4373 111.534C78.4501 112.085 78.3334 112.632 78.0966 113.131C77.8917 113.573 77.5613 113.946 77.1464 114.203C76.7315 114.46 76.2504 114.589 75.7627 114.575V114.575ZM75.7627 113.761C76.1286 113.781 76.4895 113.67 76.7797 113.446C77.0472 113.236 77.2485 112.954 77.3593 112.632C77.6101 111.92 77.6101 111.143 77.3593 110.431C77.2475 110.105 77.0467 109.818 76.7797 109.602C76.487 109.396 76.1381 109.286 75.7805 109.286C75.4229 109.286 75.074 109.396 74.7813 109.602C74.5174 109.821 74.3173 110.107 74.2017 110.431C73.9509 111.143 73.9509 111.92 74.2017 112.632C74.316 112.952 74.5166 113.233 74.7813 113.446C75.0633 113.659 75.4093 113.77 75.7627 113.761V113.761Z" fill="white"/>
<path d="M80.7408 110.903V114.463H79.8306V108.559H80.7102V109.485H80.7865C80.9212 109.186 81.1403 108.933 81.417 108.758C81.7453 108.562 82.1234 108.467 82.5051 108.483C82.8694 108.474 83.2299 108.558 83.5526 108.727C83.8574 108.894 84.1026 109.152 84.2542 109.464C84.4335 109.855 84.5189 110.281 84.5034 110.71V114.463H83.5984V110.771C83.6227 110.377 83.4933 109.989 83.2373 109.688C83.1064 109.553 82.9476 109.448 82.772 109.38C82.5964 109.313 82.4081 109.284 82.2204 109.297C81.951 109.293 81.6852 109.358 81.4475 109.485C81.219 109.612 81.0319 109.803 80.9085 110.034C80.7838 110.306 80.7263 110.604 80.7408 110.903Z" fill="white"/>
<path d="M85.3627 107.431V106.581H91.2661V107.431H88.7898V114.453H87.8389V107.431H85.3627Z" fill="white"/>
<path d="M94.2304 114.575C93.7144 114.589 93.205 114.456 92.761 114.193C92.3482 113.94 92.0178 113.573 91.8101 113.136C91.5816 112.637 91.4686 112.093 91.4796 111.544C91.4698 110.994 91.5827 110.448 91.8101 109.947C92.0142 109.507 92.3363 109.132 92.7406 108.864C93.1578 108.599 93.6444 108.462 94.1389 108.473C94.4486 108.474 94.7562 108.525 95.0491 108.625C95.3745 108.739 95.6699 108.924 95.913 109.168C96.1561 109.412 96.3406 109.708 96.4525 110.034C96.6105 110.479 96.6847 110.95 96.6712 111.422V111.808H92.1254V111.025H95.7508C95.7563 110.716 95.6883 110.409 95.5525 110.13C95.4254 109.878 95.232 109.666 94.9932 109.515C94.7361 109.359 94.4397 109.28 94.1389 109.286C93.8068 109.278 93.4803 109.372 93.2034 109.556C92.9441 109.729 92.7353 109.968 92.5982 110.247C92.4566 110.532 92.3834 110.845 92.3847 111.163V111.671C92.372 112.061 92.4522 112.448 92.6186 112.8C92.7579 113.094 92.9831 113.339 93.2644 113.502C93.5586 113.668 93.8923 113.753 94.2304 113.746C94.4498 113.748 94.6681 113.714 94.8762 113.644C95.0657 113.578 95.2391 113.472 95.3847 113.334C95.5292 113.19 95.6403 113.017 95.7101 112.825L96.5847 113.075C96.4953 113.367 96.3366 113.634 96.122 113.853C95.8926 114.079 95.6167 114.252 95.3135 114.361C94.9694 114.501 94.6018 114.573 94.2304 114.575V114.575Z" fill="white"/>
<path d="M99.7932 114.59C99.4427 114.594 99.0955 114.521 98.7763 114.376C98.4829 114.24 98.2329 114.026 98.0542 113.756C97.8662 113.464 97.7722 113.122 97.7848 112.775C97.7718 112.487 97.8405 112.201 97.983 111.951C98.1067 111.741 98.2817 111.566 98.4915 111.442C98.7259 111.32 98.9756 111.229 99.2339 111.173C99.5034 111.112 99.7729 111.066 100.047 111.031L100.922 110.924C101.098 110.915 101.271 110.872 101.43 110.797C101.482 110.766 101.525 110.721 101.552 110.666C101.579 110.612 101.59 110.552 101.583 110.492V110.461C101.594 110.3 101.572 110.139 101.518 109.987C101.465 109.835 101.382 109.695 101.273 109.576C101.146 109.463 100.998 109.377 100.837 109.322C100.677 109.268 100.506 109.247 100.337 109.261C99.9762 109.241 99.6187 109.341 99.3203 109.546C99.1046 109.706 98.9302 109.915 98.8118 110.156L97.9525 109.846C98.0849 109.519 98.2963 109.231 98.5678 109.007C98.8184 108.809 99.1076 108.665 99.4169 108.585C99.7103 108.505 100.013 108.464 100.317 108.463C100.537 108.467 100.756 108.489 100.973 108.529C101.226 108.576 101.469 108.669 101.69 108.803C101.936 108.958 102.136 109.176 102.269 109.434C102.44 109.781 102.52 110.166 102.503 110.553V114.442H101.593V113.639H101.547C101.47 113.793 101.367 113.932 101.242 114.051C101.076 114.212 100.881 114.339 100.668 114.427C100.39 114.54 100.093 114.595 99.7932 114.59V114.59ZM99.9305 113.776C100.247 113.786 100.561 113.712 100.841 113.563C101.073 113.435 101.266 113.247 101.4 113.019C101.523 112.805 101.588 112.563 101.588 112.317V111.483C101.52 111.55 101.433 111.595 101.339 111.61C101.192 111.651 101.042 111.683 100.892 111.707C100.724 111.707 100.561 111.758 100.383 111.773L100.002 111.824C99.7774 111.853 99.5562 111.902 99.3407 111.971C99.1461 112.024 98.97 112.129 98.8322 112.276C98.6998 112.426 98.6322 112.621 98.644 112.82C98.6359 112.959 98.6639 113.098 98.7254 113.223C98.7869 113.347 98.8798 113.454 98.9949 113.532C99.272 113.713 99.6004 113.799 99.9305 113.776V113.776Z" fill="white"/>
<path d="M104.156 114.453V108.549H105.031V109.475H105.107C105.219 109.17 105.428 108.911 105.702 108.737C105.997 108.554 106.34 108.462 106.688 108.473C107.033 108.459 107.374 108.551 107.664 108.737C107.932 108.922 108.143 109.177 108.275 109.475H108.336C108.484 109.17 108.72 108.915 109.012 108.742C109.344 108.557 109.72 108.463 110.1 108.473C110.339 108.467 110.577 108.509 110.8 108.596C111.022 108.683 111.225 108.814 111.397 108.981C111.579 109.189 111.717 109.431 111.805 109.693C111.892 109.955 111.926 110.231 111.905 110.507V114.458H110.995V110.507C111.012 110.334 110.989 110.159 110.927 109.997C110.866 109.835 110.767 109.689 110.639 109.571C110.399 109.386 110.103 109.287 109.8 109.292C109.621 109.281 109.443 109.309 109.276 109.374C109.109 109.439 108.958 109.539 108.834 109.668C108.602 109.927 108.48 110.266 108.493 110.614V114.458H107.573V110.415C107.578 110.264 107.552 110.113 107.495 109.973C107.438 109.833 107.352 109.706 107.242 109.602C107.014 109.392 106.713 109.281 106.403 109.292C106.17 109.293 105.941 109.358 105.742 109.48C105.531 109.602 105.356 109.777 105.234 109.988C105.104 110.221 105.039 110.484 105.046 110.751V114.442L104.156 114.453Z" fill="white"/>
<path d="M60.3762 121.907V129.773H59.4203V122.908H59.3746L57.4525 124.18V123.214L59.4203 121.907H60.3762Z" fill="#666666"/>
<path d="M65.2881 129.88C64.8242 129.888 64.3637 129.799 63.9356 129.62C63.5638 129.464 63.2394 129.214 62.9949 128.893C62.7637 128.578 62.6326 128.201 62.6187 127.81H63.5848C63.6007 128.049 63.6914 128.277 63.8441 128.461C64.0085 128.65 64.216 128.797 64.4491 128.888C64.7122 128.988 64.9915 129.038 65.2729 129.036C65.5824 129.044 65.8898 128.983 66.1729 128.858C66.4215 128.749 66.6347 128.573 66.7881 128.349C66.9377 128.135 67.016 127.878 67.0119 127.617C67.017 127.346 66.9427 127.079 66.7983 126.849C66.6389 126.625 66.4208 126.449 66.1678 126.341C65.8453 126.209 65.4991 126.145 65.1508 126.153H64.5203V125.308H65.1508C65.4345 125.315 65.7161 125.258 65.9746 125.141C66.2015 125.036 66.395 124.87 66.5339 124.663C66.6708 124.447 66.7415 124.196 66.7373 123.941C66.7419 123.697 66.6804 123.456 66.5593 123.244C66.4376 123.046 66.261 122.887 66.0509 122.786C65.8173 122.67 65.5591 122.613 65.2983 122.619C65.0353 122.618 64.7745 122.668 64.5305 122.766C64.3032 122.858 64.1023 123.005 63.9458 123.193C63.793 123.385 63.7057 123.62 63.6966 123.864H62.7762C62.7834 123.473 62.9133 123.095 63.1474 122.781C63.3864 122.464 63.7011 122.213 64.0627 122.049C64.456 121.873 64.8827 121.785 65.3135 121.79C65.749 121.778 66.1803 121.879 66.5644 122.085C66.897 122.265 67.1745 122.532 67.3678 122.858C67.5477 123.167 67.6441 123.517 67.6475 123.875C67.6586 124.281 67.5352 124.679 67.2966 125.008C67.0638 125.323 66.7327 125.55 66.3559 125.654V125.72C66.8095 125.777 67.2251 126.002 67.5204 126.351C67.8044 126.706 67.9522 127.152 67.9373 127.607C67.9413 128.018 67.8207 128.42 67.5916 128.761C67.3506 129.104 67.0247 129.379 66.6457 129.559C66.2233 129.768 65.7591 129.877 65.2881 129.88V129.88Z" fill="#666666"/>
<path d="M72.2797 121.907V129.773H71.3289V122.908H71.2831L69.3611 124.18V123.214L71.3289 121.907H72.2797Z" fill="#666666"/>
<path d="M75.4475 128.7L75.3865 129.112C75.3407 129.407 75.2746 129.717 75.1882 130.053C75.1017 130.388 75.0051 130.698 74.9136 130.993C74.822 131.288 74.7407 131.502 74.6797 131.695H73.9882C74.0187 131.532 74.0644 131.314 74.1153 131.044C74.1661 130.775 74.2271 130.475 74.2831 130.144C74.339 129.814 74.3797 129.473 74.4153 129.127L74.461 128.7H75.4475Z" fill="#666666"/>
<path d="M77.1051 129.773V129.081L79.7034 126.239C80.0085 125.908 80.2576 125.619 80.4559 125.369C80.6337 125.159 80.7809 124.924 80.8932 124.673C80.99 124.455 81.0403 124.22 81.0407 123.981C81.0466 123.728 80.9776 123.479 80.8424 123.264C80.7098 123.061 80.5232 122.899 80.3034 122.797C80.0637 122.683 79.801 122.625 79.5356 122.629C79.2593 122.621 78.9857 122.686 78.7424 122.817C78.5277 122.934 78.3512 123.111 78.2339 123.325C78.1075 123.567 78.0445 123.836 78.0509 124.108H77.1458C77.134 123.692 77.2393 123.281 77.4497 122.921C77.66 122.562 77.967 122.268 78.3356 122.075C78.719 121.877 79.1451 121.777 79.5763 121.785C80.0026 121.777 80.424 121.877 80.8017 122.075C81.1449 122.258 81.4328 122.53 81.6356 122.863C81.8396 123.194 81.9453 123.577 81.9407 123.966C81.9411 124.256 81.8876 124.544 81.783 124.815C81.6579 125.143 81.4867 125.451 81.2746 125.73C80.9411 126.158 80.5865 126.569 80.2119 126.961L78.4475 128.853V128.914H82.1034V129.758L77.1051 129.773Z" fill="#666666"/>
<path d="M86.156 121.8C86.4862 121.804 86.8132 121.866 87.1221 121.983C87.4593 122.112 87.7621 122.318 88.0068 122.583C88.3004 122.91 88.5191 123.297 88.6475 123.717C88.8253 124.3 88.9077 124.908 88.8916 125.517C88.8999 126.143 88.8334 126.768 88.6933 127.378C88.5857 127.866 88.3929 128.33 88.1238 128.751C87.8977 129.102 87.5886 129.392 87.2238 129.595C86.8581 129.79 86.4484 129.888 86.0339 129.88C85.6258 129.887 85.2217 129.798 84.8543 129.62C84.5158 129.449 84.2256 129.195 84.0102 128.883C83.785 128.557 83.6403 128.183 83.5882 127.79H84.5289C84.6011 128.134 84.7788 128.447 85.0373 128.685C85.3168 128.931 85.6823 129.057 86.0543 129.036C86.3425 129.04 86.627 128.97 86.8794 128.831C87.1318 128.691 87.3434 128.489 87.4933 128.242C87.8758 127.558 88.0524 126.777 88.0017 125.995H87.9356C87.7977 126.206 87.6259 126.394 87.4272 126.549C87.231 126.707 87.0091 126.829 86.7713 126.91C86.5245 126.996 86.2648 127.039 86.0035 127.037C85.5669 127.041 85.1377 126.925 84.7628 126.702C84.3858 126.479 84.0751 126.159 83.8628 125.776C83.6343 125.365 83.5185 124.9 83.5272 124.429C83.5214 123.966 83.6334 123.509 83.8526 123.102C84.0742 122.689 84.4082 122.348 84.8159 122.117C85.2236 121.887 85.6882 121.777 86.156 121.8V121.8ZM86.156 122.644C85.8493 122.64 85.5478 122.723 85.2865 122.883C85.0303 123.042 84.82 123.264 84.6764 123.529C84.524 123.804 84.4468 124.114 84.4526 124.429C84.4484 124.739 84.5218 125.045 84.6662 125.319C84.8059 125.58 85.0109 125.801 85.2611 125.959C85.521 126.118 85.8209 126.199 86.1255 126.193C86.3602 126.196 86.5927 126.147 86.8068 126.051C87.0138 125.955 87.2003 125.821 87.356 125.654C87.5124 125.488 87.6381 125.295 87.7272 125.085C87.8158 124.872 87.8608 124.644 87.8594 124.414C87.862 124.111 87.7866 123.814 87.6407 123.549C87.4962 123.284 87.2884 123.059 87.0357 122.893C86.7723 122.728 86.467 122.641 86.156 122.644V122.644Z" fill="#666666"/>
<path d="M19.8915 25.7695C19.4707 25.7775 19.0541 25.6851 18.6762 25.5C18.3276 25.3334 18.028 25.0794 17.8067 24.7627C17.5877 24.4485 17.4641 24.0777 17.4508 23.6949H18.3711C18.3896 23.8697 18.4443 24.0387 18.5319 24.191C18.6194 24.3434 18.7379 24.4757 18.8796 24.5796C19.1687 24.8085 19.5279 24.9307 19.8966 24.9254C20.1949 24.9344 20.4897 24.8596 20.7477 24.7095C21.0056 24.5595 21.2163 24.34 21.3559 24.0763C21.503 23.7993 21.5782 23.4898 21.5745 23.1762C21.5804 22.8547 21.5015 22.5373 21.3457 22.2559C21.2013 21.9914 20.9889 21.7703 20.7305 21.6153C20.4597 21.4484 20.1485 21.3587 19.8305 21.3559C19.5789 21.3568 19.3288 21.3945 19.0881 21.4678C18.8643 21.5271 18.6526 21.6253 18.4627 21.7576L17.5728 21.6508L18.0508 17.7762H22.1186V18.6203H18.8338L18.5542 20.944H18.6C18.7824 20.8014 18.9891 20.6929 19.2101 20.6238C19.4535 20.538 19.7098 20.495 19.9678 20.4966C20.4215 20.4884 20.8686 20.6063 21.2593 20.8373C21.633 21.0677 21.9398 21.392 22.1491 21.7779C22.3725 22.1968 22.4846 22.6661 22.4745 23.1407C22.4819 23.6098 22.3662 24.0726 22.1389 24.4831C21.92 24.8697 21.6002 25.1896 21.2135 25.4085C20.813 25.6447 20.3565 25.7694 19.8915 25.7695V25.7695Z" fill="#666666"/>
<path d="M23.8271 24.0509V23.2678L27.2848 17.7966H27.8492V19.0119H27.4577L24.8441 23.1458V23.2068H29.4916V24.0509H23.8271ZM27.5289 25.6627V17.7966H28.4339V25.6627H27.5289Z" fill="#666666"/>
<defs>
<linearGradient id="paint0_linear_62_444" x1="41.4711" y1="94.6322" x2="62.4101" y2="47.1763" gradientUnits="userSpaceOnUse">
<stop stop-color="#019FFF"/>
<stop offset="0.06" stop-color="#01A8FE"/>
<stop offset="0.17" stop-color="#01C2FA"/>
<stop offset="0.3" stop-color="#00EBF5"/>
<stop offset="0.36" stop-color="#00FFF2"/>
<stop offset="0.68" stop-color="#7EFFB8"/>
<stop offset="0.99" stop-color="#FFED4D"/>
</linearGradient>
<linearGradient id="paint1_linear_62_444" x1="121.978" y1="52.7472" x2="101.593" y2="97.7017" gradientUnits="userSpaceOnUse">
<stop stop-color="#FFED4D"/>
<stop offset="0.46875" stop-color="#3FFFBC"/>
<stop offset="0.692708" stop-color="#00FFEA"/>
<stop offset="1" stop-color="#019FFF"/>
</linearGradient>
</defs>
</svg>
