<svg width="326" height="99" viewBox="0 0 326 99" fill="none" xmlns="http://www.w3.org/2000/svg">
<path d="M0 0H326V99H0V0Z" fill="#08080A"/>
<path d="M42.3468 38.2468C41.3364 37.4426 40.1345 36.8505 38.7499 36.4763C37.3625 36.1022 35.8837 35.9137 34.3106 35.9137H29.8713V43.1634H34.4225C35.6598 43.1634 36.5759 43.5286 37.1769 44.2592C37.7749 44.9897 38.0754 45.7969 38.0754 46.6748C38.0754 47.5556 37.7749 48.3598 37.1769 49.0903C36.5759 49.8209 35.6598 50.1862 34.4225 50.1862H29.8713H22.003V66.6533H29.8713V56.8732H31.2764L37.8515 66.6533H45.7198L39.7044 56.0866C41.6162 55.4886 43.095 54.3722 44.1437 52.7431C45.1924 51.1141 45.7168 48.8753 45.7168 46.0267C45.6785 44.2268 45.3604 42.6832 44.7624 41.39C44.1644 40.1026 43.3572 39.0539 42.3468 38.2468Z" fill="white"/>
<path d="M59.0937 35.8577H51.3374V66.6591H59.0937V35.8577Z" fill="white"/>
<path d="M84.5839 38.3027C83.4792 37.4602 82.2036 36.8416 80.7631 36.4468C79.3197 36.0521 77.832 35.8577 76.2943 35.8577H64.7733V66.6591H76.2943C77.8291 66.6591 79.3108 66.4617 80.7337 66.07C82.1565 65.6752 83.4232 65.0684 84.5279 64.2435C85.6326 63.4187 86.5222 62.3612 87.1968 61.0679C87.8714 59.7747 88.2072 58.2488 88.2072 56.4872V46.2004C88.2072 44.4005 87.8773 42.8481 87.2233 41.5343C86.5693 40.2234 85.6885 39.1481 84.5839 38.3027ZM80.3949 55.9805C80.3949 56.9909 80.0856 57.8069 79.467 58.4256C78.8484 59.0442 77.8645 59.3535 76.5153 59.3535H72.5797V43.1103H76.5153C77.8262 43.1103 78.8012 43.4107 79.4375 44.0087C80.0738 44.6097 80.392 45.3962 80.392 46.3683V55.9805H80.3949Z" fill="white"/>
<path d="M115.3 43.1662V35.8577H93.8838V66.6591H115.3V59.2975H101.755V54.6873H107.261L110.917 47.9443H101.755V43.1662H115.3Z" fill="white"/>
<path d="M22 42.8834L29.8683 50.192V43.1662L22 35.8577V42.8834Z" fill="#0075FF"/>
<path d="M121 33.4745C121 34.8767 119.898 35.9784 118.467 35.9784C117.05 35.9784 115.918 34.8767 115.918 33.4745C115.918 32.1017 117.05 31 118.467 31C119.898 31 121 32.1017 121 33.4745ZM116.552 33.4745C116.552 34.5762 117.365 35.4511 118.481 35.4511C119.568 35.4511 120.367 34.5762 120.367 33.4922C120.367 32.3904 119.568 31.5008 118.467 31.5008C117.365 31.4978 116.552 32.3875 116.552 33.4745ZM118.075 34.7706H117.5V32.2962C117.727 32.252 118.042 32.2196 118.452 32.2196C118.92 32.2196 119.129 32.2962 119.312 32.3993C119.448 32.5053 119.554 32.6997 119.554 32.9413C119.554 33.2123 119.341 33.4244 119.041 33.5157V33.5452C119.283 33.6365 119.418 33.8162 119.495 34.1491C119.571 34.5261 119.615 34.6764 119.674 34.7677H119.056C118.979 34.6764 118.935 34.4525 118.858 34.1638C118.814 33.8928 118.661 33.772 118.346 33.772H118.075V34.7706V34.7706ZM118.09 33.3684H118.361C118.679 33.3684 118.935 33.2624 118.935 33.0061C118.935 32.7793 118.77 32.629 118.408 32.629C118.257 32.629 118.151 32.6438 118.09 32.6585V33.3684V33.3684Z" fill="white"/>
<path d="M295.442 77H256.558C251.831 77 248 73.1689 248 68.4426V29.5574C248 24.8311 251.831 21 256.558 21H295.442C300.169 21 304 24.8311 304 29.5574V68.4413C304 73.1676 300.169 77 295.442 77Z" fill="#08080A"/>
<path d="M284.654 35.6957C283.624 34.8763 282.4 34.273 280.989 33.8918C279.575 33.5106 278.068 33.3185 276.465 33.3185H271.942V40.7053H276.579C277.84 40.7053 278.774 41.0775 279.386 41.8219C279.995 42.5663 280.301 43.3887 280.301 44.2832C280.301 45.1806 279.995 46.0001 279.386 46.7445C278.774 47.4888 277.84 47.861 276.579 47.861H271.942H263.925V64.6398H271.942V54.6746H273.374L280.073 64.6398H288.091L281.961 53.8732C283.909 53.2639 285.416 52.1263 286.485 50.4664C287.553 48.8065 288.088 46.5253 288.088 43.6228C288.049 41.7889 287.724 40.2161 287.115 38.8984C286.506 37.5867 285.683 36.5181 284.654 35.6957Z" fill="white"/>
<path d="M263.922 40.4202L271.939 47.8671V40.7084L263.922 33.2615V40.4202Z" fill="#0075FF"/>
<rect x="248.5" y="21.5" width="55" height="55" rx="7.5" stroke="white" stroke-opacity="0.08"/>
</svg>
